<?xml version="1.0" encoding="UTF-8" standalone="no"?>
<!DOCTYPE svg PUBLIC "-//W3C//DTD SVG 1.1//EN"
 "http://www.w3.org/Graphics/SVG/1.1/DTD/svg11.dtd">
<!-- Generated by graphviz version 12.1.2 (20240928.0832)
 -->
<!-- Title: public.provider_emails Pages: 1 -->
<svg width="2620pt" height="1393pt"
 viewBox="0.00 0.00 2619.64 1392.80" xmlns="http://www.w3.org/2000/svg" xmlns:xlink="http://www.w3.org/1999/xlink">
<g id="graph0" class="graph" transform="scale(1 1) rotate(0) translate(4 1388.8)">
<title>public.provider_emails</title>
<polygon fill="white" stroke="none" points="-4,4 -4,-1388.8 2615.64,-1388.8 2615.64,4 -4,4"/>
<!-- public.provider_emails -->
<g id="node1" class="node">
<title>public.provider_emails</title>
<polygon fill="#efefef" stroke="none" points="634.87,-1292.6 634.87,-1338.6 2098.59,-1338.6 2098.59,-1292.6 634.87,-1292.6"/>
<polygon fill="none" stroke="black" points="634.87,-1292.6 634.87,-1338.6 2098.59,-1338.6 2098.59,-1292.6 634.87,-1292.6"/>
<text text-anchor="start" x="1221.26" y="-1316.4" font-family="Arial Bold" font-size="18.00">public.provider_emails</text>
<text text-anchor="start" x="1387.71" y="-1316.4" font-family="Arial" font-size="14.00">    </text>
<text text-anchor="start" x="1418.83" y="-1316.4" font-family="Arial" font-size="14.00" fill="#666666">[BASE TABLE]</text>
<text text-anchor="start" x="641.87" y="-1302" font-family="Arial" font-size="14.00" fill="#333333">Emails about a provider&#39;s account (paused, active again) to send, and what happened to each. One per admin action. Queued by admin_set_provider_status(); sent by the website&#39;s server. Server only; admins can read. Never deleted.</text>
<polygon fill="none" stroke="black" points="634.87,-1261.8 634.87,-1292.6 2098.59,-1292.6 2098.59,-1261.8 634.87,-1261.8"/>
<text text-anchor="start" x="641.87" y="-1274" font-family="Arial" font-size="14.00">id </text>
<text text-anchor="start" x="656.65" y="-1274" font-family="Arial" font-size="14.00" fill="#666666">[uuid]</text>
<polygon fill="none" stroke="black" points="634.87,-1231 634.87,-1261.8 2098.59,-1261.8 2098.59,-1231 634.87,-1231"/>
<text text-anchor="start" x="641.87" y="-1243.2" font-family="Arial" font-size="14.00">provider_id </text>
<text text-anchor="start" x="715.02" y="-1243.2" font-family="Arial" font-size="14.00" fill="#666666">[uuid]</text>
<polygon fill="none" stroke="black" points="634.87,-1200.2 634.87,-1231 2098.59,-1231 2098.59,-1200.2 634.87,-1200.2"/>
<text text-anchor="start" x="641.87" y="-1212.4" font-family="Arial" font-size="14.00">admin_action_id </text>
<text text-anchor="start" x="747.71" y="-1212.4" font-family="Arial" font-size="14.00" fill="#666666">[uuid]</text>
<polygon fill="none" stroke="black" points="634.87,-1169.4 634.87,-1200.2 2098.59,-1200.2 2098.59,-1169.4 634.87,-1169.4"/>
<text text-anchor="start" x="641.87" y="-1181.6" font-family="Arial" font-size="14.00">kind </text>
<text text-anchor="start" x="671.44" y="-1181.6" font-family="Arial" font-size="14.00" fill="#666666">[text]</text>
<polygon fill="none" stroke="black" points="634.87,-1138.6 634.87,-1169.4 2098.59,-1169.4 2098.59,-1138.6 634.87,-1138.6"/>
<text text-anchor="start" x="641.87" y="-1150.8" font-family="Arial" font-size="14.00">message </text>
<text text-anchor="start" x="702.56" y="-1150.8" font-family="Arial" font-size="14.00" fill="#666666">[text]</text>
<text text-anchor="start" x="732.91" y="-1150.8" font-family="Arial" font-size="14.00"> lokl&#39;s optional message, included in the email only if written.</text>
<polygon fill="none" stroke="black" points="634.87,-1107.8 634.87,-1138.6 2098.59,-1138.6 2098.59,-1107.8 634.87,-1107.8"/>
<text text-anchor="start" x="641.87" y="-1120" font-family="Arial" font-size="14.00">status </text>
<text text-anchor="start" x="683.11" y="-1120" font-family="Arial" font-size="14.00" fill="#666666">[text]</text>
<polygon fill="none" stroke="black" points="634.87,-1077 634.87,-1107.8 2098.59,-1107.8 2098.59,-1077 634.87,-1077"/>
<text text-anchor="start" x="641.87" y="-1089.2" font-family="Arial" font-size="14.00">attempts </text>
<text text-anchor="start" x="699.44" y="-1089.2" font-family="Arial" font-size="14.00" fill="#666666">[integer]</text>
<polygon fill="none" stroke="black" points="634.87,-1046.2 634.87,-1077 2098.59,-1077 2098.59,-1046.2 634.87,-1046.2"/>
<text text-anchor="start" x="641.87" y="-1058.4" font-family="Arial" font-size="14.00">next_attempt_at </text>
<text text-anchor="start" x="746.15" y="-1058.4" font-family="Arial" font-size="14.00" fill="#666666">[timestamp with time zone]</text>
<polygon fill="none" stroke="black" points="634.87,-1015.4 634.87,-1046.2 2098.59,-1046.2 2098.59,-1015.4 634.87,-1015.4"/>
<text text-anchor="start" x="641.87" y="-1027.6" font-family="Arial" font-size="14.00">locked_at </text>
<text text-anchor="start" x="705.69" y="-1027.6" font-family="Arial" font-size="14.00" fill="#666666">[timestamp with time zone]</text>
<polygon fill="none" stroke="black" points="634.87,-984.6 634.87,-1015.4 2098.59,-1015.4 2098.59,-984.6 634.87,-984.6"/>
<text text-anchor="start" x="641.87" y="-996.8" font-family="Arial" font-size="14.00">sent_at </text>
<text text-anchor="start" x="691.68" y="-996.8" font-family="Arial" font-size="14.00" fill="#666666">[timestamp with time zone]</text>
<polygon fill="none" stroke="black" points="634.87,-953.8 634.87,-984.6 2098.59,-984.6 2098.59,-953.8 634.87,-953.8"/>
<text text-anchor="start" x="641.87" y="-966" font-family="Arial" font-size="14.00">to_address </text>
<text text-anchor="start" x="715.02" y="-966" font-family="Arial" font-size="14.00" fill="#666666">[text]</text>
<polygon fill="none" stroke="black" points="634.87,-923 634.87,-953.8 2098.59,-953.8 2098.59,-923 634.87,-923"/>
<text text-anchor="start" x="641.87" y="-935.2" font-family="Arial" font-size="14.00">resend_id </text>
<text text-anchor="start" x="707.24" y="-935.2" font-family="Arial" font-size="14.00" fill="#666666">[text]</text>
<polygon fill="none" stroke="black" points="634.87,-892.2 634.87,-923 2098.59,-923 2098.59,-892.2 634.87,-892.2"/>
<text text-anchor="start" x="641.87" y="-904.4" font-family="Arial" font-size="14.00">last_error </text>
<text text-anchor="start" x="704.89" y="-904.4" font-family="Arial" font-size="14.00" fill="#666666">[text]</text>
<polygon fill="none" stroke="black" points="634.87,-861.4 634.87,-892.2 2098.59,-892.2 2098.59,-861.4 634.87,-861.4"/>
<text text-anchor="start" x="641.87" y="-873.6" font-family="Arial" font-size="14.00">skip_reason </text>
<text text-anchor="start" x="721.24" y="-873.6" font-family="Arial" font-size="14.00" fill="#666666">[text]</text>
<polygon fill="none" stroke="black" points="634.87,-830.6 634.87,-861.4 2098.59,-861.4 2098.59,-830.6 634.87,-830.6"/>
<text text-anchor="start" x="641.87" y="-842.8" font-family="Arial" font-size="14.00">created_at </text>
<text text-anchor="start" x="711.91" y="-842.8" font-family="Arial" font-size="14.00" fill="#666666">[timestamp with time zone]</text>
<polygon fill="none" stroke="black" points="634.87,-799.8 634.87,-830.6 2098.59,-830.6 2098.59,-799.8 634.87,-799.8"/>
<text text-anchor="start" x="641.87" y="-812" font-family="Arial" font-size="14.00">removed </text>
<text text-anchor="start" x="700.22" y="-812" font-family="Arial" font-size="14.00" fill="#666666">[text[]]</text>
<text text-anchor="start" x="738.35" y="-812" font-family="Arial" font-size="14.00"> For provider_profile_edited: which parts of the profile lokl removed.</text>
<polygon fill="none" stroke="black" points="634.87,-769 634.87,-799.8 2098.59,-799.8 2098.59,-769 634.87,-769"/>
<text text-anchor="start" x="641.87" y="-781.2" font-family="Arial" font-size="14.00">rule </text>
<text text-anchor="start" x="669.1" y="-781.2" font-family="Arial" font-size="14.00" fill="#666666">[text]</text>
<text text-anchor="start" x="699.44" y="-781.2" font-family="Arial" font-size="14.00"> For provider_profile_edited: the profile rule they broke (PROFILE_RULES in packages/types).</text>
<polygon fill="none" stroke="black" stroke-width="3" points="633.37,-767.5 633.37,-1340.1 2100.09,-1340.1 2100.09,-767.5 633.37,-767.5"/>
</g>
<!-- public.providers -->
<g id="node2" class="node">
<title>public.providers</title>
<polygon fill="#efefef" stroke="none" points="43.2,-597.6 43.2,-643.6 1376.26,-643.6 1376.26,-597.6 43.2,-597.6"/>
<polygon fill="none" stroke="black" points="43.2,-597.6 43.2,-643.6 1376.26,-643.6 1376.26,-597.6 43.2,-597.6"/>
<text text-anchor="start" x="588.75" y="-621.4" font-family="Arial Bold" font-size="18.00">public.providers</text>
<text text-anchor="start" x="706.22" y="-621.4" font-family="Arial" font-size="14.00">    </text>
<text text-anchor="start" x="737.34" y="-621.4" font-family="Arial" font-size="14.00" fill="#666666">[BASE TABLE]</text>
<text text-anchor="start" x="156.03" y="-607" font-family="Arial" font-size="14.00" fill="#333333">A business or host that sells Services or Experiences. One per login (owner_id is unique). Never deleted: bookings and payouts will point here, so a provider is suspended instead.</text>
<polygon fill="none" stroke="black" points="43.2,-566.8 43.2,-597.6 1376.26,-597.6 1376.26,-566.8 43.2,-566.8"/>
<text text-anchor="start" x="50.2" y="-579" font-family="Arial" font-size="14.00">id </text>
<text text-anchor="start" x="64.99" y="-579" font-family="Arial" font-size="14.00" fill="#666666">[uuid]</text>
<polygon fill="none" stroke="black" points="43.2,-536 43.2,-566.8 1376.26,-566.8 1376.26,-536 43.2,-536"/>
<text text-anchor="start" x="50.2" y="-548.2" font-family="Arial" font-size="14.00">owner_id </text>
<text text-anchor="start" x="110.9" y="-548.2" font-family="Arial" font-size="14.00" fill="#666666">[uuid]</text>
<text text-anchor="start" x="145.15" y="-548.2" font-family="Arial" font-size="14.00"> The login that owns and manages this provider. A user is a provider exactly when they own a row here. The login cannot be deleted while it owns a provider: suspend or anonymize the provider first.</text>
<polygon fill="none" stroke="black" points="43.2,-505.2 43.2,-536 1376.26,-536 1376.26,-505.2 43.2,-505.2"/>
<text text-anchor="start" x="50.2" y="-517.4" font-family="Arial" font-size="14.00">display_name </text>
<text text-anchor="start" x="140.48" y="-517.4" font-family="Arial" font-size="14.00" fill="#666666">[text]</text>
<text text-anchor="start" x="170.82" y="-517.4" font-family="Arial" font-size="14.00"> The business name. Public: shown on the provider&#39;s visible listings (&quot;Hosted by ...&quot;).</text>
<polygon fill="none" stroke="black" points="43.2,-474.4 43.2,-505.2 1376.26,-505.2 1376.26,-474.4 43.2,-474.4"/>
<text text-anchor="start" x="50.2" y="-486.6" font-family="Arial" font-size="14.00">status </text>
<text text-anchor="start" x="91.44" y="-486.6" font-family="Arial" font-size="14.00" fill="#666666">[text]</text>
<text text-anchor="start" x="121.79" y="-486.6" font-family="Arial" font-size="14.00"> active or suspended. Only admins change it (service role); a suspended provider cannot use provider routes.</text>
<polygon fill="none" stroke="black" points="43.2,-443.6 43.2,-474.4 1376.26,-474.4 1376.26,-443.6 43.2,-443.6"/>
<text text-anchor="start" x="50.2" y="-455.8" font-family="Arial" font-size="14.00">stripe_account_id </text>
<text text-anchor="start" x="163.83" y="-455.8" font-family="Arial" font-size="14.00" fill="#666666">[text]</text>
<text text-anchor="start" x="194.17" y="-455.8" font-family="Arial" font-size="14.00"> The provider&#39;s Stripe Connect Express account. Created by the server on first payout setup.</text>
<polygon fill="none" stroke="black" points="43.2,-412.8 43.2,-443.6 1376.26,-443.6 1376.26,-412.8 43.2,-412.8"/>
<text text-anchor="start" x="50.2" y="-425" font-family="Arial" font-size="14.00">stripe_details_submitted </text>
<text text-anchor="start" x="205.06" y="-425" font-family="Arial" font-size="14.00" fill="#666666">[boolean]</text>
<text text-anchor="start" x="262.67" y="-425" font-family="Arial" font-size="14.00"> Copied from Stripe: the provider finished the onboarding form. Server&#45;only.</text>
<polygon fill="none" stroke="black" points="43.2,-382 43.2,-412.8 1376.26,-412.8 1376.26,-382 43.2,-382"/>
<text text-anchor="start" x="50.2" y="-394.2" font-family="Arial" font-size="14.00">stripe_charges_enabled </text>
<text text-anchor="start" x="203.53" y="-394.2" font-family="Arial" font-size="14.00" fill="#666666">[boolean]</text>
<text text-anchor="start" x="261.14" y="-394.2" font-family="Arial" font-size="14.00"> Copied from Stripe: payments can be made to this provider. Server&#45;only.</text>
<polygon fill="none" stroke="black" points="43.2,-351.2 43.2,-382 1376.26,-382 1376.26,-351.2 43.2,-351.2"/>
<text text-anchor="start" x="50.2" y="-363.4" font-family="Arial" font-size="14.00">stripe_payouts_enabled </text>
<text text-anchor="start" x="202.76" y="-363.4" font-family="Arial" font-size="14.00" fill="#666666">[boolean]</text>
<text text-anchor="start" x="260.36" y="-363.4" font-family="Arial" font-size="14.00"> Copied from Stripe: Stripe can pay out to the provider&#39;s bank. Server&#45;only.</text>
<polygon fill="none" stroke="black" points="43.2,-320.4 43.2,-351.2 1376.26,-351.2 1376.26,-320.4 43.2,-320.4"/>
<text text-anchor="start" x="50.2" y="-332.6" font-family="Arial" font-size="14.00">created_at </text>
<text text-anchor="start" x="120.25" y="-332.6" font-family="Arial" font-size="14.00" fill="#666666">[timestamp with time zone]</text>
<polygon fill="none" stroke="black" points="43.2,-289.6 43.2,-320.4 1376.26,-320.4 1376.26,-289.6 43.2,-289.6"/>
<text text-anchor="start" x="50.2" y="-301.8" font-family="Arial" font-size="14.00">updated_at </text>
<text text-anchor="start" x="124.16" y="-301.8" font-family="Arial" font-size="14.00" fill="#666666">[timestamp with time zone]</text>
<polygon fill="none" stroke="black" points="43.2,-258.8 43.2,-289.6 1376.26,-289.6 1376.26,-258.8 43.2,-258.8"/>
<text text-anchor="start" x="50.2" y="-271" font-family="Arial" font-size="14.00">city_id </text>
<text text-anchor="start" x="93.77" y="-271" font-family="Arial" font-size="14.00" fill="#666666">[uuid]</text>
<text text-anchor="start" x="128.02" y="-271" font-family="Arial" font-size="14.00"> The city the provider operates in, picked from active cities. Replaces the old free&#45;text city.</text>
<polygon fill="none" stroke="black" points="43.2,-228 43.2,-258.8 1376.26,-258.8 1376.26,-228 43.2,-228"/>
<text text-anchor="start" x="50.2" y="-240.2" font-family="Arial" font-size="14.00">headline </text>
<text text-anchor="start" x="107.03" y="-240.2" font-family="Arial" font-size="14.00" fill="#666666">[text]</text>
<text text-anchor="start" x="137.37" y="-240.2" font-family="Arial" font-size="14.00"> One line about what the provider does. Public on their profile while they can be booked. No contact details.</text>
<polygon fill="none" stroke="black" points="43.2,-197.2 43.2,-228 1376.26,-228 1376.26,-197.2 43.2,-197.2"/>
<text text-anchor="start" x="50.2" y="-209.4" font-family="Arial" font-size="14.00">bio </text>
<text text-anchor="start" x="72.77" y="-209.4" font-family="Arial" font-size="14.00" fill="#666666">[text]</text>
<text text-anchor="start" x="103.12" y="-209.4" font-family="Arial" font-size="14.00"> About the provider, plain text. Public on their profile while they can be booked. No contact details.</text>
<polygon fill="none" stroke="black" points="43.2,-166.4 43.2,-197.2 1376.26,-197.2 1376.26,-166.4 43.2,-166.4"/>
<text text-anchor="start" x="50.2" y="-178.6" font-family="Arial" font-size="14.00">avatar_path </text>
<text text-anchor="start" x="128.03" y="-178.6" font-family="Arial" font-size="14.00" fill="#666666">[text]</text>
<text text-anchor="start" x="158.38" y="-178.6" font-family="Arial" font-size="14.00"> The profile photo or logo (square, 512px) in the provider&#45;photos bucket, in the provider&#39;s own folder. Public.</text>
<polygon fill="none" stroke="black" points="43.2,-135.6 43.2,-166.4 1376.26,-166.4 1376.26,-135.6 43.2,-135.6"/>
<text text-anchor="start" x="50.2" y="-147.8" font-family="Arial" font-size="14.00">avatar_small_path </text>
<text text-anchor="start" x="168.49" y="-147.8" font-family="Arial" font-size="14.00" fill="#666666">[text]</text>
<text text-anchor="start" x="198.83" y="-147.8" font-family="Arial" font-size="14.00"> The profile photo&#39;s 128px copy, for small places. Public.</text>
<polygon fill="none" stroke="black" points="43.2,-104.8 43.2,-135.6 1376.26,-135.6 1376.26,-104.8 43.2,-104.8"/>
<text text-anchor="start" x="50.2" y="-117" font-family="Arial" font-size="14.00">cover_path </text>
<text text-anchor="start" x="123.36" y="-117" font-family="Arial" font-size="14.00" fill="#666666">[text]</text>
<text text-anchor="start" x="153.7" y="-117" font-family="Arial" font-size="14.00"> The cover photo (landscape, at least 1,600 x 600) in the provider&#45;photos bucket, in the provider&#39;s own folder. Public.</text>
<polygon fill="none" stroke="black" points="43.2,-74 43.2,-104.8 1376.26,-104.8 1376.26,-74 43.2,-74"/>
<text text-anchor="start" x="50.2" y="-86.2" font-family="Arial" font-size="14.00">cover_card_path </text>
<text text-anchor="start" x="158.38" y="-86.2" font-family="Arial" font-size="14.00" fill="#666666">[text]</text>
<text text-anchor="start" x="188.72" y="-86.2" font-family="Arial" font-size="14.00"> The cover photo&#39;s 600px&#45;wide copy. Public.</text>
<polygon fill="none" stroke="black" points="43.2,-43.2 43.2,-74 1376.26,-74 1376.26,-43.2 43.2,-43.2"/>
<text text-anchor="start" x="50.2" y="-55.4" font-family="Arial" font-size="14.00">slug </text>
<text text-anchor="start" x="79.77" y="-55.4" font-family="Arial" font-size="14.00" fill="#666666">[text]</text>
<text text-anchor="start" x="110.12" y="-55.4" font-family="Arial" font-size="14.00"> The public profile&#39;s address, /providers/&lt;slug&gt;. Made from the business name when the provider is created; fixed.</text>
</g>
<!-- public.provider_emails&#45;&gt;public.providers -->
<g id="edge1" class="edge">
<title>public.provider_emails:provider_id&#45;&gt;public.providers:id</title>
<path fill="none" stroke="black" d="M623.51,-1246.16C403.39,-1235.69 476.62,-888.59 634.87,-722.8 691.81,-663.14 1319.08,-746.24 1376.26,-686.8 1408.48,-653.29 1423.75,-582.2 1377.26,-582.2"/>
<polygon fill="black" stroke="black" points="623.53,-1246.16 633.43,-1250.89 628.87,-1246.28 633.2,-1246.38 633.2,-1246.38 633.2,-1246.38 628.87,-1246.28 633.64,-1241.89 623.53,-1246.16"/>
<text text-anchor="start" x="257.9" y="-1256.4" font-family="Arial" font-size="10.00">FOREIGN KEY (provider_id) REFERENCES providers(id) ON DELETE RESTRICT</text>
</g>
<!-- public.admin_actions -->
<g id="node3" class="node">
<title>public.admin_actions</title>
<polygon fill="#efefef" stroke="none" points="1481.01,-443.6 1481.01,-489.6 2568.44,-489.6 2568.44,-443.6 1481.01,-443.6"/>
<polygon fill="none" stroke="black" points="1481.01,-443.6 1481.01,-489.6 2568.44,-489.6 2568.44,-443.6 1481.01,-443.6"/>
<text text-anchor="start" x="1885.25" y="-467.4" font-family="Arial Bold" font-size="18.00">public.admin_actions</text>
<text text-anchor="start" x="2039.72" y="-467.4" font-family="Arial" font-size="14.00">    </text>
<text text-anchor="start" x="2070.83" y="-467.4" font-family="Arial" font-size="14.00" fill="#666666">[BASE TABLE]</text>
<text text-anchor="start" x="1488.01" y="-453" font-family="Arial" font-size="14.00" fill="#333333">Every admin action on bookings, emails and providers: who, what, when and why. Written by the website&#39;s admin routes with the service role; read by admins. Never deleted.</text>
<polygon fill="none" stroke="black" points="1481.01,-412.8 1481.01,-443.6 2568.44,-443.6 2568.44,-412.8 1481.01,-412.8"/>
<text text-anchor="start" x="1488.01" y="-425" font-family="Arial" font-size="14.00">id </text>
<text text-anchor="start" x="1502.8" y="-425" font-family="Arial" font-size="14.00" fill="#666666">[uuid]</text>
<polygon fill="none" stroke="black" points="1481.01,-382 1481.01,-412.8 2568.44,-412.8 2568.44,-382 1481.01,-382"/>
<text text-anchor="start" x="1488.01" y="-394.2" font-family="Arial" font-size="14.00">admin_id </text>
<text text-anchor="start" x="1548.72" y="-394.2" font-family="Arial" font-size="14.00" fill="#666666">[uuid]</text>
<polygon fill="none" stroke="black" points="1481.01,-351.2 1481.01,-382 2568.44,-382 2568.44,-351.2 1481.01,-351.2"/>
<text text-anchor="start" x="1488.01" y="-363.4" font-family="Arial" font-size="14.00">target </text>
<text text-anchor="start" x="1527.7" y="-363.4" font-family="Arial" font-size="14.00" fill="#666666">[text]</text>
<polygon fill="none" stroke="black" points="1481.01,-320.4 1481.01,-351.2 2568.44,-351.2 2568.44,-320.4 1481.01,-320.4"/>
<text text-anchor="start" x="1488.01" y="-332.6" font-family="Arial" font-size="14.00">target_id </text>
<text text-anchor="start" x="1546.39" y="-332.6" font-family="Arial" font-size="14.00" fill="#666666">[uuid]</text>
<polygon fill="none" stroke="black" points="1481.01,-289.6 1481.01,-320.4 2568.44,-320.4 2568.44,-289.6 1481.01,-289.6"/>
<text text-anchor="start" x="1488.01" y="-301.8" font-family="Arial" font-size="14.00">action </text>
<text text-anchor="start" x="1529.26" y="-301.8" font-family="Arial" font-size="14.00" fill="#666666">[text]</text>
<polygon fill="none" stroke="black" points="1481.01,-258.8 1481.01,-289.6 2568.44,-289.6 2568.44,-258.8 1481.01,-258.8"/>
<text text-anchor="start" x="1488.01" y="-271" font-family="Arial" font-size="14.00">reason </text>
<text text-anchor="start" x="1534.71" y="-271" font-family="Arial" font-size="14.00" fill="#666666">[text]</text>
<polygon fill="none" stroke="black" points="1481.01,-228 1481.01,-258.8 2568.44,-258.8 2568.44,-228 1481.01,-228"/>
<text text-anchor="start" x="1488.01" y="-240.2" font-family="Arial" font-size="14.00">created_at </text>
<text text-anchor="start" x="1558.06" y="-240.2" font-family="Arial" font-size="14.00" fill="#666666">[timestamp with time zone]</text>
<polygon fill="none" stroke="black" points="1481.01,-197.2 1481.01,-228 2568.44,-228 2568.44,-197.2 1481.01,-197.2"/>
<text text-anchor="start" x="1488.01" y="-209.4" font-family="Arial" font-size="14.00">message </text>
<text text-anchor="start" x="1548.71" y="-209.4" font-family="Arial" font-size="14.00" fill="#666666">[text]</text>
<text text-anchor="start" x="1579.06" y="-209.4" font-family="Arial" font-size="14.00"> For suspending or reinstating a provider: the optional message lokl added to the provider&#39;s email. (The reason is internal and never sent.)</text>
</g>
<!-- public.provider_emails&#45;&gt;public.admin_actions -->
<g id="edge2" class="edge">
<title>public.provider_emails:admin_action_id&#45;&gt;public.admin_actions:id</title>
<path fill="none" stroke="black" d="M2109.94,-1215.36C2315.71,-1205.43 2226.79,-896.01 2098.59,-722.8 1927.74,-491.98 1652.73,-762.98 1481.01,-532.8 1453.21,-495.54 1433.52,-428.2 1480.01,-428.2"/>
<polygon fill="black" stroke="black" points="2109.92,-1215.36 2099.82,-1211.09 2104.59,-1215.48 2100.26,-1215.58 2100.26,-1215.58 2100.26,-1215.58 2104.59,-1215.48 2100.03,-1220.09 2109.92,-1215.36"/>
<text text-anchor="start" x="2106.59" y="-1225.6" font-family="Arial" font-size="10.00">FOREIGN KEY (admin_action_id) REFERENCES admin_actions(id) ON DELETE RESTRICT</text>
</g>
</g>
</svg>
