<?xml version="1.0" encoding="UTF-8" standalone="no"?>
<!DOCTYPE svg PUBLIC "-//W3C//DTD SVG 1.1//EN"
 "http://www.w3.org/Graphics/SVG/1.1/DTD/svg11.dtd">
<!-- Generated by graphviz version 12.1.2 (20240928.0832)
 -->
<!-- Title: public.notifications Pages: 1 -->
<svg width="2728pt" height="1146pt"
 viewBox="0.00 0.00 2727.98 1146.40" xmlns="http://www.w3.org/2000/svg" xmlns:xlink="http://www.w3.org/1999/xlink">
<g id="graph0" class="graph" transform="scale(1 1) rotate(0) translate(4 1142.4)">
<title>public.notifications</title>
<polygon fill="white" stroke="none" points="-4,4 -4,-1142.4 2723.98,-1142.4 2723.98,4 -4,4"/>
<!-- public.notifications -->
<g id="node1" class="node">
<title>public.notifications</title>
<polygon fill="#efefef" stroke="none" points="585.02,-1046.2 585.02,-1092.2 2202.44,-1092.2 2202.44,-1046.2 585.02,-1046.2"/>
<polygon fill="none" stroke="black" points="585.02,-1046.2 585.02,-1092.2 2202.44,-1092.2 2202.44,-1046.2 585.02,-1046.2"/>
<text text-anchor="start" x="1261.75" y="-1070" font-family="Arial Bold" font-size="18.00">public.notifications</text>
<text text-anchor="start" x="1401.22" y="-1070" font-family="Arial" font-size="14.00">    </text>
<text text-anchor="start" x="1432.34" y="-1070" font-family="Arial" font-size="14.00" fill="#666666">[BASE TABLE]</text>
<text text-anchor="start" x="592.02" y="-1055.6" font-family="Arial" font-size="14.00" fill="#333333">Things that happened to a provider&#39;s listings because of an admin action. Written only by the listings_notify_status_change trigger. Providers read their own and mark them read. Deleted with their listing; otherwise kept (a cleanup of old read ones comes later).</text>
<polygon fill="none" stroke="black" points="585.02,-1015.4 585.02,-1046.2 2202.44,-1046.2 2202.44,-1015.4 585.02,-1015.4"/>
<text text-anchor="start" x="592.02" y="-1027.6" font-family="Arial" font-size="14.00">id </text>
<text text-anchor="start" x="606.8" y="-1027.6" font-family="Arial" font-size="14.00" fill="#666666">[uuid]</text>
<polygon fill="none" stroke="black" points="585.02,-984.6 585.02,-1015.4 2202.44,-1015.4 2202.44,-984.6 585.02,-984.6"/>
<text text-anchor="start" x="592.02" y="-996.8" font-family="Arial" font-size="14.00">provider_id </text>
<text text-anchor="start" x="665.17" y="-996.8" font-family="Arial" font-size="14.00" fill="#666666">[uuid]</text>
<text text-anchor="start" x="699.42" y="-996.8" font-family="Arial" font-size="14.00"> The recipient: the business that owns the listing.</text>
<polygon fill="none" stroke="black" points="585.02,-953.8 585.02,-984.6 2202.44,-984.6 2202.44,-953.8 585.02,-953.8"/>
<text text-anchor="start" x="592.02" y="-966" font-family="Arial" font-size="14.00">kind </text>
<text text-anchor="start" x="621.59" y="-966" font-family="Arial" font-size="14.00" fill="#666666">[text]</text>
<text text-anchor="start" x="651.93" y="-966" font-family="Arial" font-size="14.00"> listing_approved (submitted &#45;&gt; live), listing_rejected (submitted &#45;&gt; rejected), listing_unpublished (live &#45;&gt; unpublished) or listing_restored (unpublished &#45;&gt; live). The sentence shown is built from this and the listing&#39;s current title.</text>
<polygon fill="none" stroke="black" points="585.02,-923 585.02,-953.8 2202.44,-953.8 2202.44,-923 585.02,-923"/>
<text text-anchor="start" x="592.02" y="-935.2" font-family="Arial" font-size="14.00">listing_id </text>
<text text-anchor="start" x="650.38" y="-935.2" font-family="Arial" font-size="14.00" fill="#666666">[uuid]</text>
<polygon fill="none" stroke="black" points="585.02,-892.2 585.02,-923 2202.44,-923 2202.44,-892.2 585.02,-892.2"/>
<text text-anchor="start" x="592.02" y="-904.4" font-family="Arial" font-size="14.00">created_at </text>
<text text-anchor="start" x="662.06" y="-904.4" font-family="Arial" font-size="14.00" fill="#666666">[timestamp with time zone]</text>
<polygon fill="none" stroke="black" points="585.02,-861.4 585.02,-892.2 2202.44,-892.2 2202.44,-861.4 585.02,-861.4"/>
<text text-anchor="start" x="592.02" y="-873.6" font-family="Arial" font-size="14.00">read_at </text>
<text text-anchor="start" x="643.39" y="-873.6" font-family="Arial" font-size="14.00" fill="#666666">[timestamp with time zone]</text>
<text text-anchor="start" x="809.11" y="-873.6" font-family="Arial" font-size="14.00"> When the provider marked it read; null while unread. Once set it doesn&#39;t change, and it can&#39;t be cleared.</text>
<polygon fill="none" stroke="black" stroke-width="3" points="583.52,-859.9 583.52,-1093.7 2203.94,-1093.7 2203.94,-859.9 583.52,-859.9"/>
</g>
<!-- public.providers -->
<g id="node2" class="node">
<title>public.providers</title>
<polygon fill="#efefef" stroke="none" points="43.2,-536 43.2,-582 1376.26,-582 1376.26,-536 43.2,-536"/>
<polygon fill="none" stroke="black" points="43.2,-536 43.2,-582 1376.26,-582 1376.26,-536 43.2,-536"/>
<text text-anchor="start" x="588.75" y="-559.8" font-family="Arial Bold" font-size="18.00">public.providers</text>
<text text-anchor="start" x="706.22" y="-559.8" font-family="Arial" font-size="14.00">    </text>
<text text-anchor="start" x="737.34" y="-559.8" font-family="Arial" font-size="14.00" fill="#666666">[BASE TABLE]</text>
<text text-anchor="start" x="156.03" y="-545.4" font-family="Arial" font-size="14.00" fill="#333333">A business or host that sells Services or Experiences. One per login (owner_id is unique). Never deleted: bookings and payouts will point here, so a provider is suspended instead.</text>
<polygon fill="none" stroke="black" points="43.2,-505.2 43.2,-536 1376.26,-536 1376.26,-505.2 43.2,-505.2"/>
<text text-anchor="start" x="50.2" y="-517.4" font-family="Arial" font-size="14.00">id </text>
<text text-anchor="start" x="64.99" y="-517.4" font-family="Arial" font-size="14.00" fill="#666666">[uuid]</text>
<polygon fill="none" stroke="black" points="43.2,-474.4 43.2,-505.2 1376.26,-505.2 1376.26,-474.4 43.2,-474.4"/>
<text text-anchor="start" x="50.2" y="-486.6" font-family="Arial" font-size="14.00">owner_id </text>
<text text-anchor="start" x="110.9" y="-486.6" font-family="Arial" font-size="14.00" fill="#666666">[uuid]</text>
<text text-anchor="start" x="145.15" y="-486.6" font-family="Arial" font-size="14.00"> The login that owns and manages this provider. A user is a provider exactly when they own a row here. The login cannot be deleted while it owns a provider: suspend or anonymize the provider first.</text>
<polygon fill="none" stroke="black" points="43.2,-443.6 43.2,-474.4 1376.26,-474.4 1376.26,-443.6 43.2,-443.6"/>
<text text-anchor="start" x="50.2" y="-455.8" font-family="Arial" font-size="14.00">display_name </text>
<text text-anchor="start" x="140.48" y="-455.8" font-family="Arial" font-size="14.00" fill="#666666">[text]</text>
<text text-anchor="start" x="170.82" y="-455.8" font-family="Arial" font-size="14.00"> Business or host name shown to customers.</text>
<polygon fill="none" stroke="black" points="43.2,-412.8 43.2,-443.6 1376.26,-443.6 1376.26,-412.8 43.2,-412.8"/>
<text text-anchor="start" x="50.2" y="-425" font-family="Arial" font-size="14.00">status </text>
<text text-anchor="start" x="91.44" y="-425" font-family="Arial" font-size="14.00" fill="#666666">[text]</text>
<text text-anchor="start" x="121.79" y="-425" font-family="Arial" font-size="14.00"> active or suspended. Only admins change it (service role); a suspended provider cannot use provider routes.</text>
<polygon fill="none" stroke="black" points="43.2,-382 43.2,-412.8 1376.26,-412.8 1376.26,-382 43.2,-382"/>
<text text-anchor="start" x="50.2" y="-394.2" font-family="Arial" font-size="14.00">stripe_account_id </text>
<text text-anchor="start" x="163.83" y="-394.2" font-family="Arial" font-size="14.00" fill="#666666">[text]</text>
<text text-anchor="start" x="194.17" y="-394.2" font-family="Arial" font-size="14.00"> The provider&#39;s Stripe Connect Express account. Created by the server on first payout setup.</text>
<polygon fill="none" stroke="black" points="43.2,-351.2 43.2,-382 1376.26,-382 1376.26,-351.2 43.2,-351.2"/>
<text text-anchor="start" x="50.2" y="-363.4" font-family="Arial" font-size="14.00">stripe_details_submitted </text>
<text text-anchor="start" x="205.06" y="-363.4" font-family="Arial" font-size="14.00" fill="#666666">[boolean]</text>
<text text-anchor="start" x="262.67" y="-363.4" font-family="Arial" font-size="14.00"> Copied from Stripe: the provider finished the onboarding form. Server&#45;only.</text>
<polygon fill="none" stroke="black" points="43.2,-320.4 43.2,-351.2 1376.26,-351.2 1376.26,-320.4 43.2,-320.4"/>
<text text-anchor="start" x="50.2" y="-332.6" font-family="Arial" font-size="14.00">stripe_charges_enabled </text>
<text text-anchor="start" x="203.53" y="-332.6" font-family="Arial" font-size="14.00" fill="#666666">[boolean]</text>
<text text-anchor="start" x="261.14" y="-332.6" font-family="Arial" font-size="14.00"> Copied from Stripe: payments can be made to this provider. Server&#45;only.</text>
<polygon fill="none" stroke="black" points="43.2,-289.6 43.2,-320.4 1376.26,-320.4 1376.26,-289.6 43.2,-289.6"/>
<text text-anchor="start" x="50.2" y="-301.8" font-family="Arial" font-size="14.00">stripe_payouts_enabled </text>
<text text-anchor="start" x="202.76" y="-301.8" font-family="Arial" font-size="14.00" fill="#666666">[boolean]</text>
<text text-anchor="start" x="260.36" y="-301.8" font-family="Arial" font-size="14.00"> Copied from Stripe: Stripe can pay out to the provider&#39;s bank. Server&#45;only.</text>
<polygon fill="none" stroke="black" points="43.2,-258.8 43.2,-289.6 1376.26,-289.6 1376.26,-258.8 43.2,-258.8"/>
<text text-anchor="start" x="50.2" y="-271" font-family="Arial" font-size="14.00">created_at </text>
<text text-anchor="start" x="120.25" y="-271" font-family="Arial" font-size="14.00" fill="#666666">[timestamp with time zone]</text>
<polygon fill="none" stroke="black" points="43.2,-228 43.2,-258.8 1376.26,-258.8 1376.26,-228 43.2,-228"/>
<text text-anchor="start" x="50.2" y="-240.2" font-family="Arial" font-size="14.00">updated_at </text>
<text text-anchor="start" x="124.16" y="-240.2" font-family="Arial" font-size="14.00" fill="#666666">[timestamp with time zone]</text>
<polygon fill="none" stroke="black" points="43.2,-197.2 43.2,-228 1376.26,-228 1376.26,-197.2 43.2,-197.2"/>
<text text-anchor="start" x="50.2" y="-209.4" font-family="Arial" font-size="14.00">city_id </text>
<text text-anchor="start" x="93.77" y="-209.4" font-family="Arial" font-size="14.00" fill="#666666">[uuid]</text>
<text text-anchor="start" x="128.02" y="-209.4" font-family="Arial" font-size="14.00"> The city the provider operates in, picked from active cities. Replaces the old free&#45;text city.</text>
</g>
<!-- public.notifications&#45;&gt;public.providers -->
<g id="edge1" class="edge">
<title>public.notifications:provider_id&#45;&gt;public.providers:id</title>
<path fill="none" stroke="black" d="M573.63,-999.29C504.8,-989.29 536.29,-876.67 585.02,-815.2 809.68,-531.78 1151.01,-908.15 1376.26,-625.2 1405.21,-588.83 1423.75,-520.6 1377.26,-520.6"/>
<polygon fill="black" stroke="black" points="573.71,-999.29 583.37,-1004.47 579.03,-999.66 583.35,-999.95 583.35,-999.95 583.35,-999.95 579.03,-999.66 583.99,-995.49 573.71,-999.29"/>
<text text-anchor="start" x="208.05" y="-984" font-family="Arial" font-size="10.00">FOREIGN KEY (provider_id) REFERENCES providers(id) ON DELETE RESTRICT</text>
</g>
<!-- public.listings -->
<g id="node3" class="node">
<title>public.listings</title>
<polygon fill="#efefef" stroke="none" points="1480.68,-690 1480.68,-736 2676.78,-736 2676.78,-690 1480.68,-690"/>
<polygon fill="none" stroke="black" points="1480.68,-690 1480.68,-736 2676.78,-736 2676.78,-690 1480.68,-690"/>
<text text-anchor="start" x="1965.73" y="-713.8" font-family="Arial Bold" font-size="18.00">public.listings</text>
<text text-anchor="start" x="2067.24" y="-713.8" font-family="Arial" font-size="14.00">    </text>
<text text-anchor="start" x="2098.35" y="-713.8" font-family="Arial" font-size="14.00" fill="#666666">[BASE TABLE]</text>
<text text-anchor="start" x="1487.68" y="-699.4" font-family="Arial" font-size="14.00" fill="#333333">A Service or Experience a provider offers. Deleted only while it has never been live (published_at is null); after that it is unlisted or unpublished, never deleted, because bookings will point at it.</text>
<polygon fill="none" stroke="black" points="1480.68,-659.2 1480.68,-690 2676.78,-690 2676.78,-659.2 1480.68,-659.2"/>
<text text-anchor="start" x="1487.68" y="-671.4" font-family="Arial" font-size="14.00">id </text>
<text text-anchor="start" x="1502.46" y="-671.4" font-family="Arial" font-size="14.00" fill="#666666">[uuid]</text>
<polygon fill="none" stroke="black" points="1480.68,-628.4 1480.68,-659.2 2676.78,-659.2 2676.78,-628.4 1480.68,-628.4"/>
<text text-anchor="start" x="1487.68" y="-640.6" font-family="Arial" font-size="14.00">provider_id </text>
<text text-anchor="start" x="1560.83" y="-640.6" font-family="Arial" font-size="14.00" fill="#666666">[uuid]</text>
<polygon fill="none" stroke="black" points="1480.68,-597.6 1480.68,-628.4 2676.78,-628.4 2676.78,-597.6 1480.68,-597.6"/>
<text text-anchor="start" x="1487.68" y="-609.8" font-family="Arial" font-size="14.00">kind </text>
<text text-anchor="start" x="1517.25" y="-609.8" font-family="Arial" font-size="14.00" fill="#666666">[text]</text>
<text text-anchor="start" x="1547.59" y="-609.8" font-family="Arial" font-size="14.00"> service or experience. Fixed at creation.</text>
<polygon fill="none" stroke="black" points="1480.68,-566.8 1480.68,-597.6 2676.78,-597.6 2676.78,-566.8 1480.68,-566.8"/>
<text text-anchor="start" x="1487.68" y="-579" font-family="Arial" font-size="14.00">category_id </text>
<text text-anchor="start" x="1563.94" y="-579" font-family="Arial" font-size="14.00" fill="#666666">[uuid]</text>
<text text-anchor="start" x="1598.19" y="-579" font-family="Arial" font-size="14.00"> A category of the same kind, enforced by the (category_id, kind) reference.</text>
<polygon fill="none" stroke="black" points="1480.68,-536 1480.68,-566.8 2676.78,-566.8 2676.78,-536 1480.68,-536"/>
<text text-anchor="start" x="1487.68" y="-548.2" font-family="Arial" font-size="14.00">city_id </text>
<text text-anchor="start" x="1531.25" y="-548.2" font-family="Arial" font-size="14.00" fill="#666666">[uuid]</text>
<polygon fill="none" stroke="black" points="1480.68,-505.2 1480.68,-536 2676.78,-536 2676.78,-505.2 1480.68,-505.2"/>
<text text-anchor="start" x="1487.68" y="-517.4" font-family="Arial" font-size="14.00">title </text>
<text text-anchor="start" x="1513.35" y="-517.4" font-family="Arial" font-size="14.00" fill="#666666">[text]</text>
<polygon fill="none" stroke="black" points="1480.68,-474.4 1480.68,-505.2 2676.78,-505.2 2676.78,-474.4 1480.68,-474.4"/>
<text text-anchor="start" x="1487.68" y="-486.6" font-family="Arial" font-size="14.00">slug </text>
<text text-anchor="start" x="1517.25" y="-486.6" font-family="Arial" font-size="14.00" fill="#666666">[text]</text>
<text text-anchor="start" x="1547.59" y="-486.6" font-family="Arial" font-size="14.00"> Generated from the title with a short random suffix when the listing is created. Used by public listing pages; not changed afterwards.</text>
<polygon fill="none" stroke="black" points="1480.68,-443.6 1480.68,-474.4 2676.78,-474.4 2676.78,-443.6 1480.68,-443.6"/>
<text text-anchor="start" x="1487.68" y="-455.8" font-family="Arial" font-size="14.00">description </text>
<text text-anchor="start" x="1559.27" y="-455.8" font-family="Arial" font-size="14.00" fill="#666666">[text]</text>
<polygon fill="none" stroke="black" points="1480.68,-412.8 1480.68,-443.6 2676.78,-443.6 2676.78,-412.8 1480.68,-412.8"/>
<text text-anchor="start" x="1487.68" y="-425" font-family="Arial" font-size="14.00">price_cents </text>
<text text-anchor="start" x="1563.16" y="-425" font-family="Arial" font-size="14.00" fill="#666666">[integer]</text>
<text text-anchor="start" x="1613.74" y="-425" font-family="Arial" font-size="14.00"> Whole price in cents for a Service; per person for an Experience.</text>
<polygon fill="none" stroke="black" points="1480.68,-382 1480.68,-412.8 2676.78,-412.8 2676.78,-382 1480.68,-382"/>
<text text-anchor="start" x="1487.68" y="-394.2" font-family="Arial" font-size="14.00">currency </text>
<text text-anchor="start" x="1545.25" y="-394.2" font-family="Arial" font-size="14.00" fill="#666666">[text]</text>
<polygon fill="none" stroke="black" points="1480.68,-351.2 1480.68,-382 2676.78,-382 2676.78,-351.2 1480.68,-351.2"/>
<text text-anchor="start" x="1487.68" y="-363.4" font-family="Arial" font-size="14.00">duration_minutes </text>
<text text-anchor="start" x="1598.96" y="-363.4" font-family="Arial" font-size="14.00" fill="#666666">[integer]</text>
<text text-anchor="start" x="1649.55" y="-363.4" font-family="Arial" font-size="14.00"> Required for Experiences; optional for Services.</text>
<polygon fill="none" stroke="black" points="1480.68,-320.4 1480.68,-351.2 2676.78,-351.2 2676.78,-320.4 1480.68,-320.4"/>
<text text-anchor="start" x="1487.68" y="-332.6" font-family="Arial" font-size="14.00">location_mode </text>
<text text-anchor="start" x="1582.63" y="-332.6" font-family="Arial" font-size="14.00" fill="#666666">[text]</text>
<text text-anchor="start" x="1612.97" y="-332.6" font-family="Arial" font-size="14.00"> Services only: provider_location (customer comes to the provider) or customer_location (provider travels, within listing_service_areas). Null for Experiences.</text>
<polygon fill="none" stroke="black" points="1480.68,-289.6 1480.68,-320.4 2676.78,-320.4 2676.78,-289.6 1480.68,-289.6"/>
<text text-anchor="start" x="1487.68" y="-301.8" font-family="Arial" font-size="14.00">area_id </text>
<text text-anchor="start" x="1538.27" y="-301.8" font-family="Arial" font-size="14.00" fill="#666666">[uuid]</text>
<text text-anchor="start" x="1572.52" y="-301.8" font-family="Arial" font-size="14.00"> The public location label, e.g. Old Fourth Ward. Required for provider&#45;location Services and Experiences. Must be in the listing&#39;s city.</text>
<polygon fill="none" stroke="black" points="1480.68,-258.8 1480.68,-289.6 2676.78,-289.6 2676.78,-258.8 1480.68,-258.8"/>
<text text-anchor="start" x="1487.68" y="-271" font-family="Arial" font-size="14.00">status </text>
<text text-anchor="start" x="1528.92" y="-271" font-family="Arial" font-size="14.00" fill="#666666">[text]</text>
<text text-anchor="start" x="1559.26" y="-271" font-family="Arial" font-size="14.00"> draft, submitted, live, rejected or unpublished. Changed only by server routes.</text>
<polygon fill="none" stroke="black" points="1480.68,-228 1480.68,-258.8 2676.78,-258.8 2676.78,-228 1480.68,-228"/>
<text text-anchor="start" x="1487.68" y="-240.2" font-family="Arial" font-size="14.00">rejection_reason </text>
<text text-anchor="start" x="1595.07" y="-240.2" font-family="Arial" font-size="14.00" fill="#666666">[text]</text>
<text text-anchor="start" x="1625.42" y="-240.2" font-family="Arial" font-size="14.00"> Why an Experience was sent back. Set on rejection; cleared on resubmission.</text>
<polygon fill="none" stroke="black" points="1480.68,-197.2 1480.68,-228 2676.78,-228 2676.78,-197.2 1480.68,-197.2"/>
<text text-anchor="start" x="1487.68" y="-209.4" font-family="Arial" font-size="14.00">submitted_at </text>
<text text-anchor="start" x="1571.72" y="-209.4" font-family="Arial" font-size="14.00" fill="#666666">[timestamp with time zone]</text>
<polygon fill="none" stroke="black" points="1480.68,-166.4 1480.68,-197.2 2676.78,-197.2 2676.78,-166.4 1480.68,-166.4"/>
<text text-anchor="start" x="1487.68" y="-178.6" font-family="Arial" font-size="14.00">reviewed_at </text>
<text text-anchor="start" x="1567.05" y="-178.6" font-family="Arial" font-size="14.00" fill="#666666">[timestamp with time zone]</text>
<polygon fill="none" stroke="black" points="1480.68,-135.6 1480.68,-166.4 2676.78,-166.4 2676.78,-135.6 1480.68,-135.6"/>
<text text-anchor="start" x="1487.68" y="-147.8" font-family="Arial" font-size="14.00">published_at </text>
<text text-anchor="start" x="1570.96" y="-147.8" font-family="Arial" font-size="14.00" fill="#666666">[timestamp with time zone]</text>
<text text-anchor="start" x="1736.69" y="-147.8" font-family="Arial" font-size="14.00"> Set the first time the listing goes live and never cleared.</text>
<polygon fill="none" stroke="black" points="1480.68,-104.8 1480.68,-135.6 2676.78,-135.6 2676.78,-104.8 1480.68,-104.8"/>
<text text-anchor="start" x="1487.68" y="-117" font-family="Arial" font-size="14.00">created_at </text>
<text text-anchor="start" x="1557.72" y="-117" font-family="Arial" font-size="14.00" fill="#666666">[timestamp with time zone]</text>
<polygon fill="none" stroke="black" points="1480.68,-74 1480.68,-104.8 2676.78,-104.8 2676.78,-74 1480.68,-74"/>
<text text-anchor="start" x="1487.68" y="-86.2" font-family="Arial" font-size="14.00">updated_at </text>
<text text-anchor="start" x="1561.63" y="-86.2" font-family="Arial" font-size="14.00" fill="#666666">[timestamp with time zone]</text>
<polygon fill="none" stroke="black" points="1480.68,-43.2 1480.68,-74 2676.78,-74 2676.78,-43.2 1480.68,-43.2"/>
<text text-anchor="start" x="1487.68" y="-55.4" font-family="Arial" font-size="14.00">unpublished_reason </text>
<text text-anchor="start" x="1617.67" y="-55.4" font-family="Arial" font-size="14.00" fill="#666666">[text]</text>
<text text-anchor="start" x="1648.01" y="-55.4" font-family="Arial" font-size="14.00"> Why the owner took the listing down, 10 to 1,000 characters; shown to the provider. Set when unpublished; cleared on restore. Server&#45;only.</text>
</g>
<!-- public.notifications&#45;&gt;public.listings -->
<g id="edge2" class="edge">
<title>public.notifications:listing_id&#45;&gt;public.listings:id</title>
<path fill="none" stroke="black" d="M2213.67,-937.27C2255.66,-927.17 2237.75,-852.02 2202.44,-815.2 2146.86,-757.25 1536.3,-837.11 1480.68,-779.2 1448.47,-745.67 1433.18,-674.6 1479.68,-674.6"/>
<polygon fill="black" stroke="black" points="2213.71,-937.26 2203.28,-933.89 2208.41,-937.85 2204.1,-938.33 2204.1,-938.33 2204.1,-938.33 2208.41,-937.85 2204.27,-942.84 2213.71,-937.26"/>
<text text-anchor="start" x="2210.44" y="-948.4" font-family="Arial" font-size="10.00">FOREIGN KEY (listing_id) REFERENCES listings(id) ON DELETE CASCADE</text>
</g>
</g>
</svg>
