<?xml version="1.0" encoding="UTF-8" standalone="no"?>
<!DOCTYPE svg PUBLIC "-//W3C//DTD SVG 1.1//EN"
 "http://www.w3.org/Graphics/SVG/1.1/DTD/svg11.dtd">
<!-- Generated by graphviz version 12.1.2 (20240928.0832)
 -->
<!-- Title: public.booking_finances Pages: 1 -->
<svg width="2729pt" height="2009pt"
 viewBox="0.00 0.00 2728.69 2008.80" xmlns="http://www.w3.org/2000/svg" xmlns:xlink="http://www.w3.org/1999/xlink">
<g id="graph0" class="graph" transform="scale(1 1) rotate(0) translate(4 2004.8)">
<title>public.booking_finances</title>
<polygon fill="white" stroke="none" points="-4,4 -4,-2004.8 2724.69,-2004.8 2724.69,4 -4,4"/>
<!-- public.booking_finances -->
<g id="node1" class="node">
<title>public.booking_finances</title>
<polygon fill="#efefef" stroke="none" points="623.76,-1908.6 623.76,-1954.6 2086.65,-1954.6 2086.65,-1908.6 623.76,-1908.6"/>
<polygon fill="none" stroke="black" points="623.76,-1908.6 623.76,-1954.6 2086.65,-1954.6 2086.65,-1908.6 623.76,-1908.6"/>
<text text-anchor="start" x="1204.23" y="-1932.4" font-family="Arial Bold" font-size="18.00">public.booking_finances</text>
<text text-anchor="start" x="1381.69" y="-1932.4" font-family="Arial" font-size="14.00">    </text>
<text text-anchor="start" x="1412.81" y="-1932.4" font-family="Arial" font-size="14.00" fill="#666666">[BASE TABLE]</text>
<text text-anchor="start" x="630.76" y="-1918" font-family="Arial" font-size="14.00" fill="#333333">A booking&#39;s money side: the commission split (copied at booking), payout holds and failures, Stripe ids, dispute and reversal details. Read by the booking&#39;s provider and admins, never the customer; written by the server. Never deleted.</text>
<polygon fill="none" stroke="black" points="623.76,-1877.8 623.76,-1908.6 2086.65,-1908.6 2086.65,-1877.8 623.76,-1877.8"/>
<text text-anchor="start" x="630.76" y="-1890" font-family="Arial" font-size="14.00">booking_id </text>
<text text-anchor="start" x="702.37" y="-1890" font-family="Arial" font-size="14.00" fill="#666666">[uuid]</text>
<polygon fill="none" stroke="black" points="623.76,-1847 623.76,-1877.8 2086.65,-1877.8 2086.65,-1847 623.76,-1847"/>
<text text-anchor="start" x="630.76" y="-1859.2" font-family="Arial" font-size="14.00">commission_rate_bps </text>
<text text-anchor="start" x="770.82" y="-1859.2" font-family="Arial" font-size="14.00" fill="#666666">[integer]</text>
<polygon fill="none" stroke="black" points="623.76,-1816.2 623.76,-1847 2086.65,-1847 2086.65,-1816.2 623.76,-1816.2"/>
<text text-anchor="start" x="630.76" y="-1828.4" font-family="Arial" font-size="14.00">commission_cents </text>
<text text-anchor="start" x="749.8" y="-1828.4" font-family="Arial" font-size="14.00" fill="#666666">[integer]</text>
<polygon fill="none" stroke="black" points="623.76,-1785.4 623.76,-1816.2 2086.65,-1816.2 2086.65,-1785.4 623.76,-1785.4"/>
<text text-anchor="start" x="630.76" y="-1797.6" font-family="Arial" font-size="14.00">provider_amount_cents </text>
<text text-anchor="start" x="780.96" y="-1797.6" font-family="Arial" font-size="14.00" fill="#666666">[integer]</text>
<polygon fill="none" stroke="black" points="623.76,-1754.6 623.76,-1785.4 2086.65,-1785.4 2086.65,-1754.6 623.76,-1754.6"/>
<text text-anchor="start" x="630.76" y="-1766.8" font-family="Arial" font-size="14.00">payout_hold </text>
<text text-anchor="start" x="710.94" y="-1766.8" font-family="Arial" font-size="14.00" fill="#666666">[text]</text>
<text text-anchor="start" x="741.28" y="-1766.8" font-family="Arial" font-size="14.00"> Why this booking&#39;s payout is held for lokl to review (see the pay&#45;out job). Set by the job; cleared only by the admin.</text>
<polygon fill="none" stroke="black" points="623.76,-1723.8 623.76,-1754.6 2086.65,-1754.6 2086.65,-1723.8 623.76,-1723.8"/>
<text text-anchor="start" x="630.76" y="-1736" font-family="Arial" font-size="14.00">payout_held_at </text>
<text text-anchor="start" x="730.4" y="-1736" font-family="Arial" font-size="14.00" fill="#666666">[timestamp with time zone]</text>
<polygon fill="none" stroke="black" points="623.76,-1693 623.76,-1723.8 2086.65,-1723.8 2086.65,-1693 623.76,-1693"/>
<text text-anchor="start" x="630.76" y="-1705.2" font-family="Arial" font-size="14.00">payout_failed_at </text>
<text text-anchor="start" x="737.4" y="-1705.2" font-family="Arial" font-size="14.00" fill="#666666">[timestamp with time zone]</text>
<polygon fill="none" stroke="black" points="623.76,-1662.2 623.76,-1693 2086.65,-1693 2086.65,-1662.2 623.76,-1662.2"/>
<text text-anchor="start" x="630.76" y="-1674.4" font-family="Arial" font-size="14.00">payout_failure </text>
<text text-anchor="start" x="722.6" y="-1674.4" font-family="Arial" font-size="14.00" fill="#666666">[text]</text>
<polygon fill="none" stroke="black" points="623.76,-1631.4 623.76,-1662.2 2086.65,-1662.2 2086.65,-1631.4 623.76,-1631.4"/>
<text text-anchor="start" x="630.76" y="-1643.6" font-family="Arial" font-size="14.00">stripe_checkout_session_id </text>
<text text-anchor="start" x="806.64" y="-1643.6" font-family="Arial" font-size="14.00" fill="#666666">[text]</text>
<polygon fill="none" stroke="black" points="623.76,-1600.6 623.76,-1631.4 2086.65,-1631.4 2086.65,-1600.6 623.76,-1600.6"/>
<text text-anchor="start" x="630.76" y="-1612.8" font-family="Arial" font-size="14.00">stripe_payment_intent_id </text>
<text text-anchor="start" x="791.08" y="-1612.8" font-family="Arial" font-size="14.00" fill="#666666">[text]</text>
<polygon fill="none" stroke="black" points="623.76,-1569.8 623.76,-1600.6 2086.65,-1600.6 2086.65,-1569.8 623.76,-1569.8"/>
<text text-anchor="start" x="630.76" y="-1582" font-family="Arial" font-size="14.00">stripe_charge_id </text>
<text text-anchor="start" x="738.16" y="-1582" font-family="Arial" font-size="14.00" fill="#666666">[text]</text>
<text text-anchor="start" x="768.5" y="-1582" font-family="Arial" font-size="14.00"> Stripe ids are readable by the booking&#39;s provider, though no page shows them (a possible later refinement: docs/design/booking&#45;and&#45;checkout.md).</text>
<polygon fill="none" stroke="black" points="623.76,-1539 623.76,-1569.8 2086.65,-1569.8 2086.65,-1539 623.76,-1539"/>
<text text-anchor="start" x="630.76" y="-1551.2" font-family="Arial" font-size="14.00">stripe_transfer_id </text>
<text text-anchor="start" x="742.81" y="-1551.2" font-family="Arial" font-size="14.00" fill="#666666">[text]</text>
<polygon fill="none" stroke="black" points="623.76,-1508.2 623.76,-1539 2086.65,-1539 2086.65,-1508.2 623.76,-1508.2"/>
<text text-anchor="start" x="630.76" y="-1520.4" font-family="Arial" font-size="14.00">stripe_transfer_reversal_id </text>
<text text-anchor="start" x="800.39" y="-1520.4" font-family="Arial" font-size="14.00" fill="#666666">[text]</text>
<polygon fill="none" stroke="black" points="623.76,-1477.4 623.76,-1508.2 2086.65,-1508.2 2086.65,-1477.4 623.76,-1477.4"/>
<text text-anchor="start" x="630.76" y="-1489.6" font-family="Arial" font-size="14.00">reversal_failed_at </text>
<text text-anchor="start" x="745.16" y="-1489.6" font-family="Arial" font-size="14.00" fill="#666666">[timestamp with time zone]</text>
<polygon fill="none" stroke="black" points="623.76,-1446.6 623.76,-1477.4 2086.65,-1477.4 2086.65,-1446.6 623.76,-1446.6"/>
<text text-anchor="start" x="630.76" y="-1458.8" font-family="Arial" font-size="14.00">reversal_failure </text>
<text text-anchor="start" x="730.36" y="-1458.8" font-family="Arial" font-size="14.00" fill="#666666">[text]</text>
<polygon fill="none" stroke="black" points="623.76,-1415.8 623.76,-1446.6 2086.65,-1446.6 2086.65,-1415.8 623.76,-1415.8"/>
<text text-anchor="start" x="630.76" y="-1428" font-family="Arial" font-size="14.00">stripe_dispute_id </text>
<text text-anchor="start" x="740.5" y="-1428" font-family="Arial" font-size="14.00" fill="#666666">[text]</text>
<polygon fill="none" stroke="black" points="623.76,-1385 623.76,-1415.8 2086.65,-1415.8 2086.65,-1385 623.76,-1385"/>
<text text-anchor="start" x="630.76" y="-1397.2" font-family="Arial" font-size="14.00">disputed_at </text>
<text text-anchor="start" x="707.04" y="-1397.2" font-family="Arial" font-size="14.00" fill="#666666">[timestamp with time zone]</text>
<polygon fill="none" stroke="black" points="623.76,-1354.2 623.76,-1385 2086.65,-1385 2086.65,-1354.2 623.76,-1354.2"/>
<text text-anchor="start" x="630.76" y="-1366.4" font-family="Arial" font-size="14.00">dispute_closed_at </text>
<text text-anchor="start" x="747.51" y="-1366.4" font-family="Arial" font-size="14.00" fill="#666666">[timestamp with time zone]</text>
<polygon fill="none" stroke="black" points="623.76,-1323.4 623.76,-1354.2 2086.65,-1354.2 2086.65,-1323.4 623.76,-1323.4"/>
<text text-anchor="start" x="630.76" y="-1335.6" font-family="Arial" font-size="14.00">dispute_outcome </text>
<text text-anchor="start" x="741.28" y="-1335.6" font-family="Arial" font-size="14.00" fill="#666666">[text]</text>
<polygon fill="none" stroke="black" points="623.76,-1292.6 623.76,-1323.4 2086.65,-1323.4 2086.65,-1292.6 623.76,-1292.6"/>
<text text-anchor="start" x="630.76" y="-1304.8" font-family="Arial" font-size="14.00">dispute_reason </text>
<text text-anchor="start" x="730.39" y="-1304.8" font-family="Arial" font-size="14.00" fill="#666666">[text]</text>
<polygon fill="none" stroke="black" points="623.76,-1261.8 623.76,-1292.6 2086.65,-1292.6 2086.65,-1261.8 623.76,-1261.8"/>
<text text-anchor="start" x="630.76" y="-1274" font-family="Arial" font-size="14.00">dispute_amount_cents </text>
<text text-anchor="start" x="775.52" y="-1274" font-family="Arial" font-size="14.00" fill="#666666">[integer]</text>
<polygon fill="none" stroke="black" points="623.76,-1231 623.76,-1261.8 2086.65,-1261.8 2086.65,-1231 623.76,-1231"/>
<text text-anchor="start" x="630.76" y="-1243.2" font-family="Arial" font-size="14.00">dispute_evidence_due_by </text>
<text text-anchor="start" x="797.34" y="-1243.2" font-family="Arial" font-size="14.00" fill="#666666">[timestamp with time zone]</text>
<polygon fill="none" stroke="black" stroke-width="3" points="622.26,-1229.5 622.26,-1956.1 2088.15,-1956.1 2088.15,-1229.5 622.26,-1229.5"/>
</g>
<!-- public.bookings -->
<g id="node2" class="node">
<title>public.bookings</title>
<polygon fill="#efefef" stroke="none" points="43.2,-1059.6 43.2,-1105.6 2667.21,-1105.6 2667.21,-1059.6 43.2,-1059.6"/>
<polygon fill="none" stroke="black" points="43.2,-1059.6 43.2,-1105.6 2667.21,-1105.6 2667.21,-1059.6 43.2,-1059.6"/>
<text text-anchor="start" x="1235.21" y="-1083.4" font-family="Arial Bold" font-size="18.00">public.bookings</text>
<text text-anchor="start" x="1350.71" y="-1083.4" font-family="Arial" font-size="14.00">    </text>
<text text-anchor="start" x="1381.83" y="-1083.4" font-family="Arial" font-size="14.00" fill="#666666">[BASE TABLE]</text>
<text text-anchor="start" x="445.76" y="-1069" font-family="Arial" font-size="14.00" fill="#333333">A customer&#39;s booking of a Service (a request the provider accepts) or an Experience session (paid at once). Written only by the website&#39;s server. lokl holds the payment and transfers the provider&#39;s share 24 hours after the booking ends. Never deleted: payments, refunds and payouts point here.</text>
<polygon fill="none" stroke="black" points="43.2,-1028.8 43.2,-1059.6 2667.21,-1059.6 2667.21,-1028.8 43.2,-1028.8"/>
<text text-anchor="start" x="50.2" y="-1041" font-family="Arial" font-size="14.00">id </text>
<text text-anchor="start" x="64.99" y="-1041" font-family="Arial" font-size="14.00" fill="#666666">[uuid]</text>
<polygon fill="none" stroke="black" points="43.2,-998 43.2,-1028.8 2667.21,-1028.8 2667.21,-998 43.2,-998"/>
<text text-anchor="start" x="50.2" y="-1010.2" font-family="Arial" font-size="14.00">kind </text>
<text text-anchor="start" x="79.77" y="-1010.2" font-family="Arial" font-size="14.00" fill="#666666">[text]</text>
<polygon fill="none" stroke="black" points="43.2,-967.2 43.2,-998 2667.21,-998 2667.21,-967.2 43.2,-967.2"/>
<text text-anchor="start" x="50.2" y="-979.4" font-family="Arial" font-size="14.00">listing_id </text>
<text text-anchor="start" x="108.57" y="-979.4" font-family="Arial" font-size="14.00" fill="#666666">[uuid]</text>
<polygon fill="none" stroke="black" points="43.2,-936.4 43.2,-967.2 2667.21,-967.2 2667.21,-936.4 43.2,-936.4"/>
<text text-anchor="start" x="50.2" y="-948.6" font-family="Arial" font-size="14.00">provider_id </text>
<text text-anchor="start" x="123.35" y="-948.6" font-family="Arial" font-size="14.00" fill="#666666">[uuid]</text>
<polygon fill="none" stroke="black" points="43.2,-905.6 43.2,-936.4 2667.21,-936.4 2667.21,-905.6 43.2,-905.6"/>
<text text-anchor="start" x="50.2" y="-917.8" font-family="Arial" font-size="14.00">customer_id </text>
<text text-anchor="start" x="130.34" y="-917.8" font-family="Arial" font-size="14.00" fill="#666666">[uuid]</text>
<polygon fill="none" stroke="black" points="43.2,-874.8 43.2,-905.6 2667.21,-905.6 2667.21,-874.8 43.2,-874.8"/>
<text text-anchor="start" x="50.2" y="-887" font-family="Arial" font-size="14.00">session_id </text>
<text text-anchor="start" x="120.24" y="-887" font-family="Arial" font-size="14.00" fill="#666666">[uuid]</text>
<polygon fill="none" stroke="black" points="43.2,-844 43.2,-874.8 2667.21,-874.8 2667.21,-844 43.2,-844"/>
<text text-anchor="start" x="50.2" y="-856.2" font-family="Arial" font-size="14.00">status </text>
<text text-anchor="start" x="91.44" y="-856.2" font-family="Arial" font-size="14.00" fill="#666666">[text]</text>
<text text-anchor="start" x="121.79" y="-856.2" font-family="Arial" font-size="14.00"> pending_payment (in Stripe Checkout; spots held until reserved_until) &#45;&gt; requested (Service: card on hold, waiting for the provider) &#45;&gt; confirmed (accepted and charged, or Experience paid) &#45;&gt; completed (it happened) &#45;&gt; paid_out (provider&#39;s share transferred). Or declined, expired, cancelled. A customer&#39;s late cancellation (no refund) can still be paid out. The allowed changes are enforced by bookings_guard.</text>
<polygon fill="none" stroke="black" points="43.2,-813.2 43.2,-844 2667.21,-844 2667.21,-813.2 43.2,-813.2"/>
<text text-anchor="start" x="50.2" y="-825.4" font-family="Arial" font-size="14.00">preferred_times </text>
<text text-anchor="start" x="152.13" y="-825.4" font-family="Arial" font-size="14.00" fill="#666666">[timestamp with time zone[]]</text>
<text text-anchor="start" x="325.63" y="-825.4" font-family="Arial" font-size="14.00"> Services: one to three times the customer offers, each at least 24 hours ahead when requested. The provider accepts one, which becomes starts_at.</text>
<polygon fill="none" stroke="black" points="43.2,-782.4 43.2,-813.2 2667.21,-813.2 2667.21,-782.4 43.2,-782.4"/>
<text text-anchor="start" x="50.2" y="-794.6" font-family="Arial" font-size="14.00">starts_at </text>
<text text-anchor="start" x="107.78" y="-794.6" font-family="Arial" font-size="14.00" fill="#666666">[timestamp with time zone]</text>
<text text-anchor="start" x="273.5" y="-794.6" font-family="Arial" font-size="14.00"> Experiences: the session&#39;s start, copied. Services: the accepted preferred time.</text>
<polygon fill="none" stroke="black" points="43.2,-751.6 43.2,-782.4 2667.21,-782.4 2667.21,-751.6 43.2,-751.6"/>
<text text-anchor="start" x="50.2" y="-763.8" font-family="Arial" font-size="14.00">ends_at </text>
<text text-anchor="start" x="103.91" y="-763.8" font-family="Arial" font-size="14.00" fill="#666666">[timestamp with time zone]</text>
<text text-anchor="start" x="269.63" y="-763.8" font-family="Arial" font-size="14.00"> starts_at plus the listing&#39;s duration (or starts_at if it has none). Set by the database.</text>
<polygon fill="none" stroke="black" points="43.2,-720.8 43.2,-751.6 2667.21,-751.6 2667.21,-720.8 43.2,-720.8"/>
<text text-anchor="start" x="50.2" y="-733" font-family="Arial" font-size="14.00">party_size </text>
<text text-anchor="start" x="117.9" y="-733" font-family="Arial" font-size="14.00" fill="#666666">[smallint]</text>
<text text-anchor="start" x="173.13" y="-733" font-family="Arial" font-size="14.00"> People booked: 1 for Services; 1 to 10 for Experiences, and no more than the spots left.</text>
<polygon fill="none" stroke="black" points="43.2,-690 43.2,-720.8 2667.21,-720.8 2667.21,-690 43.2,-690"/>
<text text-anchor="start" x="50.2" y="-702.2" font-family="Arial" font-size="14.00">customer_name </text>
<text text-anchor="start" x="154.47" y="-702.2" font-family="Arial" font-size="14.00" fill="#666666">[text]</text>
<text text-anchor="start" x="184.81" y="-702.2" font-family="Arial" font-size="14.00"> The customer&#39;s name from checkout. The provider sees it on the request.</text>
<polygon fill="none" stroke="black" points="43.2,-659.2 43.2,-690 2667.21,-690 2667.21,-659.2 43.2,-659.2"/>
<text text-anchor="start" x="50.2" y="-671.4" font-family="Arial" font-size="14.00">customer_notes </text>
<text text-anchor="start" x="153.7" y="-671.4" font-family="Arial" font-size="14.00" fill="#666666">[text]</text>
<polygon fill="none" stroke="black" points="43.2,-628.4 43.2,-659.2 2667.21,-659.2 2667.21,-628.4 43.2,-628.4"/>
<text text-anchor="start" x="50.2" y="-640.6" font-family="Arial" font-size="14.00">unit_price_cents </text>
<text text-anchor="start" x="156.04" y="-640.6" font-family="Arial" font-size="14.00" fill="#666666">[integer]</text>
<polygon fill="none" stroke="black" points="43.2,-597.6 43.2,-628.4 2667.21,-628.4 2667.21,-597.6 43.2,-597.6"/>
<text text-anchor="start" x="50.2" y="-609.8" font-family="Arial" font-size="14.00">total_cents </text>
<text text-anchor="start" x="121.8" y="-609.8" font-family="Arial" font-size="14.00" fill="#666666">[integer]</text>
<polygon fill="none" stroke="black" points="43.2,-566.8 43.2,-597.6 2667.21,-597.6 2667.21,-566.8 43.2,-566.8"/>
<text text-anchor="start" x="50.2" y="-579" font-family="Arial" font-size="14.00">currency </text>
<text text-anchor="start" x="107.77" y="-579" font-family="Arial" font-size="14.00" fill="#666666">[text]</text>
<polygon fill="none" stroke="black" points="43.2,-536 43.2,-566.8 2667.21,-566.8 2667.21,-536 43.2,-536"/>
<text text-anchor="start" x="50.2" y="-548.2" font-family="Arial" font-size="14.00">refunded_cents </text>
<text text-anchor="start" x="150.61" y="-548.2" font-family="Arial" font-size="14.00" fill="#666666">[integer]</text>
<polygon fill="none" stroke="black" points="43.2,-505.2 43.2,-536 2667.21,-536 2667.21,-505.2 43.2,-505.2"/>
<text text-anchor="start" x="50.2" y="-517.4" font-family="Arial" font-size="14.00">refunded_at </text>
<text text-anchor="start" x="128.82" y="-517.4" font-family="Arial" font-size="14.00" fill="#666666">[timestamp with time zone]</text>
<polygon fill="none" stroke="black" points="43.2,-474.4 43.2,-505.2 2667.21,-505.2 2667.21,-474.4 43.2,-474.4"/>
<text text-anchor="start" x="50.2" y="-486.6" font-family="Arial" font-size="14.00">reserved_until </text>
<text text-anchor="start" x="142.03" y="-486.6" font-family="Arial" font-size="14.00" fill="#666666">[timestamp with time zone]</text>
<polygon fill="none" stroke="black" points="43.2,-443.6 43.2,-474.4 2667.21,-474.4 2667.21,-443.6 43.2,-443.6"/>
<text text-anchor="start" x="50.2" y="-455.8" font-family="Arial" font-size="14.00">respond_by </text>
<text text-anchor="start" x="127.25" y="-455.8" font-family="Arial" font-size="14.00" fill="#666666">[timestamp with time zone]</text>
<polygon fill="none" stroke="black" points="43.2,-412.8 43.2,-443.6 2667.21,-443.6 2667.21,-412.8 43.2,-412.8"/>
<text text-anchor="start" x="50.2" y="-425" font-family="Arial" font-size="14.00">confirmed_at </text>
<text text-anchor="start" x="135.02" y="-425" font-family="Arial" font-size="14.00" fill="#666666">[timestamp with time zone]</text>
<polygon fill="none" stroke="black" points="43.2,-382 43.2,-412.8 2667.21,-412.8 2667.21,-382 43.2,-382"/>
<text text-anchor="start" x="50.2" y="-394.2" font-family="Arial" font-size="14.00">payout_due_at </text>
<text text-anchor="start" x="146.73" y="-394.2" font-family="Arial" font-size="14.00" fill="#666666">[timestamp with time zone]</text>
<text text-anchor="start" x="312.45" y="-394.2" font-family="Arial" font-size="14.00"> When the provider&#39;s share may be transferred: 24 hours after ends_at. Set by the database on confirmation.</text>
<polygon fill="none" stroke="black" points="43.2,-351.2 43.2,-382 2667.21,-382 2667.21,-351.2 43.2,-351.2"/>
<text text-anchor="start" x="50.2" y="-363.4" font-family="Arial" font-size="14.00">problem_reported_at </text>
<text text-anchor="start" x="184.06" y="-363.4" font-family="Arial" font-size="14.00" fill="#666666">[timestamp with time zone]</text>
<text text-anchor="start" x="349.78" y="-363.4" font-family="Arial" font-size="14.00"> Set when the customer reports the provider didn&#39;t show; holds the payout until the admin acts.</text>
<polygon fill="none" stroke="black" points="43.2,-320.4 43.2,-351.2 2667.21,-351.2 2667.21,-320.4 43.2,-320.4"/>
<text text-anchor="start" x="50.2" y="-332.6" font-family="Arial" font-size="14.00">cancelled_by </text>
<text text-anchor="start" x="135.81" y="-332.6" font-family="Arial" font-size="14.00" fill="#666666">[text]</text>
<polygon fill="none" stroke="black" points="43.2,-289.6 43.2,-320.4 2667.21,-320.4 2667.21,-289.6 43.2,-289.6"/>
<text text-anchor="start" x="50.2" y="-301.8" font-family="Arial" font-size="14.00">cancelled_at </text>
<text text-anchor="start" x="132.7" y="-301.8" font-family="Arial" font-size="14.00" fill="#666666">[timestamp with time zone]</text>
<polygon fill="none" stroke="black" points="43.2,-258.8 43.2,-289.6 2667.21,-289.6 2667.21,-258.8 43.2,-258.8"/>
<text text-anchor="start" x="50.2" y="-271" font-family="Arial" font-size="14.00">cancel_reason </text>
<text text-anchor="start" x="145.15" y="-271" font-family="Arial" font-size="14.00" fill="#666666">[text]</text>
<polygon fill="none" stroke="black" points="43.2,-228 43.2,-258.8 2667.21,-258.8 2667.21,-228 43.2,-228"/>
<text text-anchor="start" x="50.2" y="-240.2" font-family="Arial" font-size="14.00">status_changed_by </text>
<text text-anchor="start" x="175.52" y="-240.2" font-family="Arial" font-size="14.00" fill="#666666">[text]</text>
<text text-anchor="start" x="205.86" y="-240.2" font-family="Arial" font-size="14.00"> Who made the latest status change; copied into booking_events.</text>
<polygon fill="none" stroke="black" points="43.2,-197.2 43.2,-228 2667.21,-228 2667.21,-197.2 43.2,-197.2"/>
<text text-anchor="start" x="50.2" y="-209.4" font-family="Arial" font-size="14.00">created_at </text>
<text text-anchor="start" x="120.25" y="-209.4" font-family="Arial" font-size="14.00" fill="#666666">[timestamp with time zone]</text>
<polygon fill="none" stroke="black" points="43.2,-166.4 43.2,-197.2 2667.21,-197.2 2667.21,-166.4 43.2,-166.4"/>
<text text-anchor="start" x="50.2" y="-178.6" font-family="Arial" font-size="14.00">updated_at </text>
<text text-anchor="start" x="124.16" y="-178.6" font-family="Arial" font-size="14.00" fill="#666666">[timestamp with time zone]</text>
<polygon fill="none" stroke="black" points="43.2,-135.6 43.2,-166.4 2667.21,-166.4 2667.21,-135.6 43.2,-135.6"/>
<text text-anchor="start" x="50.2" y="-147.8" font-family="Arial" font-size="14.00">customer_city </text>
<text text-anchor="start" x="140.45" y="-147.8" font-family="Arial" font-size="14.00" fill="#666666">[text]</text>
<text text-anchor="start" x="170.79" y="-147.8" font-family="Arial" font-size="14.00"> &quot;I come to you&quot; Services: the customer&#39;s city, copied from their address when the request is made, so the provider sees roughly where before accepting. Never changes.</text>
<polygon fill="none" stroke="black" points="43.2,-104.8 43.2,-135.6 2667.21,-135.6 2667.21,-104.8 43.2,-104.8"/>
<text text-anchor="start" x="50.2" y="-117" font-family="Arial" font-size="14.00">customer_postal_code </text>
<text text-anchor="start" x="194.95" y="-117" font-family="Arial" font-size="14.00" fill="#666666">[text]</text>
<text text-anchor="start" x="225.3" y="-117" font-family="Arial" font-size="14.00"> &quot;I come to you&quot; Services: the customer&#39;s zip code, copied like customer_city. The street address stays in booking_addresses until the provider accepts.</text>
<polygon fill="none" stroke="black" points="43.2,-74 43.2,-104.8 2667.21,-104.8 2667.21,-74 43.2,-74"/>
<text text-anchor="start" x="50.2" y="-86.2" font-family="Arial" font-size="14.00">problem_resolved_at </text>
<text text-anchor="start" x="184.83" y="-86.2" font-family="Arial" font-size="14.00" fill="#666666">[timestamp with time zone]</text>
<polygon fill="none" stroke="black" points="43.2,-43.2 43.2,-74 2667.21,-74 2667.21,-43.2 43.2,-43.2"/>
<text text-anchor="start" x="50.2" y="-55.4" font-family="Arial" font-size="14.00">problem_resolution </text>
<text text-anchor="start" x="173.16" y="-55.4" font-family="Arial" font-size="14.00" fill="#666666">[text]</text>
<text text-anchor="start" x="203.5" y="-55.4" font-family="Arial" font-size="14.00"> How lokl resolved a no&#45;show report: paid_provider (the payout goes ahead) or refunded (the booking was cancelled with a full refund).</text>
</g>
<!-- public.booking_finances&#45;&gt;public.bookings -->
<g id="edge1" class="edge">
<title>public.booking_finances:booking_id&#45;&gt;public.bookings:id</title>
<path fill="none" stroke="black" d="M2097.92,-1892.66C2333.04,-1868.51 2893.42,-1044.2 2668.21,-1044.2"/>
<polygon fill="black" stroke="black" points="2097.97,-1892.66 2087.75,-1888.69 2092.64,-1892.94 2088.32,-1893.16 2088.32,-1893.16 2088.32,-1893.16 2092.64,-1892.94 2088.22,-1897.68 2097.97,-1892.66"/>
<text text-anchor="start" x="2094.65" y="-1903.2" font-family="Arial" font-size="10.00">FOREIGN KEY (booking_id) REFERENCES bookings(id) ON DELETE RESTRICT</text>
</g>
</g>
</svg>
