<?xml version="1.0" encoding="UTF-8" standalone="no"?>
<!DOCTYPE svg PUBLIC "-//W3C//DTD SVG 1.1//EN"
 "http://www.w3.org/Graphics/SVG/1.1/DTD/svg11.dtd">
<!-- Generated by graphviz version 12.1.2 (20240928.0832)
 -->
<!-- Title: public.listing_ratings Pages: 1 -->
<svg width="1516pt" height="1270pt"
 viewBox="0.00 0.00 1515.66 1269.60" xmlns="http://www.w3.org/2000/svg" xmlns:xlink="http://www.w3.org/1999/xlink">
<g id="graph0" class="graph" transform="scale(1 1) rotate(0) translate(4 1265.6)">
<title>public.listing_ratings</title>
<polygon fill="white" stroke="none" points="-4,4 -4,-1265.6 1511.66,-1265.6 1511.66,4 -4,4"/>
<!-- public.listing_ratings -->
<g id="node1" class="node">
<title>public.listing_ratings</title>
<polygon fill="#efefef" stroke="none" points="136.04,-1169.4 136.04,-1215.4 1146.47,-1215.4 1146.47,-1169.4 136.04,-1169.4"/>
<polygon fill="none" stroke="black" points="136.04,-1169.4 136.04,-1215.4 1146.47,-1215.4 1146.47,-1169.4 136.04,-1169.4"/>
<text text-anchor="start" x="502.76" y="-1193.2" font-family="Arial Bold" font-size="18.00">public.listing_ratings</text>
<text text-anchor="start" x="655.25" y="-1193.2" font-family="Arial" font-size="14.00">    </text>
<text text-anchor="start" x="686.37" y="-1193.2" font-family="Arial" font-size="14.00" fill="#666666">[BASE TABLE]</text>
<text text-anchor="start" x="143.04" y="-1178.8" font-family="Arial" font-size="14.00" fill="#333333">Each listing&#39;s published reviews: count, star total and average (rounded half up to one decimal). Kept by the reviews_recount trigger; never written from the apps.</text>
<polygon fill="none" stroke="black" points="136.04,-1138.6 136.04,-1169.4 1146.47,-1169.4 1146.47,-1138.6 136.04,-1138.6"/>
<text text-anchor="start" x="143.04" y="-1150.8" font-family="Arial" font-size="14.00">listing_id </text>
<text text-anchor="start" x="201.4" y="-1150.8" font-family="Arial" font-size="14.00" fill="#666666">[uuid]</text>
<polygon fill="none" stroke="black" points="136.04,-1107.8 136.04,-1138.6 1146.47,-1138.6 1146.47,-1107.8 136.04,-1107.8"/>
<text text-anchor="start" x="143.04" y="-1120" font-family="Arial" font-size="14.00">review_count </text>
<text text-anchor="start" x="229.41" y="-1120" font-family="Arial" font-size="14.00" fill="#666666">[integer]</text>
<polygon fill="none" stroke="black" points="136.04,-1077 136.04,-1107.8 1146.47,-1107.8 1146.47,-1077 136.04,-1077"/>
<text text-anchor="start" x="143.04" y="-1089.2" font-family="Arial" font-size="14.00">rating_total </text>
<text text-anchor="start" x="216.19" y="-1089.2" font-family="Arial" font-size="14.00" fill="#666666">[integer]</text>
<polygon fill="none" stroke="black" points="136.04,-1046.2 136.04,-1077 1146.47,-1077 1146.47,-1046.2 136.04,-1046.2"/>
<text text-anchor="start" x="143.04" y="-1058.4" font-family="Arial" font-size="14.00">rating_average </text>
<text text-anchor="start" x="240.32" y="-1058.4" font-family="Arial" font-size="14.00" fill="#666666">[numeric(2,1)]</text>
<polygon fill="none" stroke="black" points="136.04,-1015.4 136.04,-1046.2 1146.47,-1046.2 1146.47,-1015.4 136.04,-1015.4"/>
<text text-anchor="start" x="143.04" y="-1027.6" font-family="Arial" font-size="14.00">updated_at </text>
<text text-anchor="start" x="216.99" y="-1027.6" font-family="Arial" font-size="14.00" fill="#666666">[timestamp with time zone]</text>
<polygon fill="none" stroke="black" points="136.04,-984.6 136.04,-1015.4 1146.47,-1015.4 1146.47,-984.6 136.04,-984.6"/>
<text text-anchor="start" x="143.04" y="-996.8" font-family="Arial" font-size="14.00">stars_1 </text>
<text text-anchor="start" x="192.84" y="-996.8" font-family="Arial" font-size="14.00" fill="#666666">[integer]</text>
<polygon fill="none" stroke="black" points="136.04,-953.8 136.04,-984.6 1146.47,-984.6 1146.47,-953.8 136.04,-953.8"/>
<text text-anchor="start" x="143.04" y="-966" font-family="Arial" font-size="14.00">stars_2 </text>
<text text-anchor="start" x="192.84" y="-966" font-family="Arial" font-size="14.00" fill="#666666">[integer]</text>
<polygon fill="none" stroke="black" points="136.04,-923 136.04,-953.8 1146.47,-953.8 1146.47,-923 136.04,-923"/>
<text text-anchor="start" x="143.04" y="-935.2" font-family="Arial" font-size="14.00">stars_3 </text>
<text text-anchor="start" x="192.84" y="-935.2" font-family="Arial" font-size="14.00" fill="#666666">[integer]</text>
<polygon fill="none" stroke="black" points="136.04,-892.2 136.04,-923 1146.47,-923 1146.47,-892.2 136.04,-892.2"/>
<text text-anchor="start" x="143.04" y="-904.4" font-family="Arial" font-size="14.00">stars_4 </text>
<text text-anchor="start" x="192.84" y="-904.4" font-family="Arial" font-size="14.00" fill="#666666">[integer]</text>
<polygon fill="none" stroke="black" points="136.04,-861.4 136.04,-892.2 1146.47,-892.2 1146.47,-861.4 136.04,-861.4"/>
<text text-anchor="start" x="143.04" y="-873.6" font-family="Arial" font-size="14.00">stars_5 </text>
<text text-anchor="start" x="192.84" y="-873.6" font-family="Arial" font-size="14.00" fill="#666666">[integer]</text>
<text text-anchor="start" x="243.42" y="-873.6" font-family="Arial" font-size="14.00"> Published reviews with 5 stars (stars_1 to stars_4 likewise). Kept by recount_ratings.</text>
<polygon fill="none" stroke="black" stroke-width="3" points="134.54,-859.9 134.54,-1216.9 1147.97,-1216.9 1147.97,-859.9 134.54,-859.9"/>
</g>
<!-- public.listings -->
<g id="node2" class="node">
<title>public.listings</title>
<polygon fill="#efefef" stroke="none" points="43.2,-690 43.2,-736 1239.3,-736 1239.3,-690 43.2,-690"/>
<polygon fill="none" stroke="black" points="43.2,-690 43.2,-736 1239.3,-736 1239.3,-690 43.2,-690"/>
<text text-anchor="start" x="528.26" y="-713.8" font-family="Arial Bold" font-size="18.00">public.listings</text>
<text text-anchor="start" x="629.76" y="-713.8" font-family="Arial" font-size="14.00">    </text>
<text text-anchor="start" x="660.88" y="-713.8" font-family="Arial" font-size="14.00" fill="#666666">[BASE TABLE]</text>
<text text-anchor="start" x="50.2" y="-699.4" font-family="Arial" font-size="14.00" fill="#333333">A Service or Experience a provider offers. Deleted only while it has never been live (published_at is null); after that it is unlisted or unpublished, never deleted, because bookings will point at it.</text>
<polygon fill="none" stroke="black" points="43.2,-659.2 43.2,-690 1239.3,-690 1239.3,-659.2 43.2,-659.2"/>
<text text-anchor="start" x="50.2" y="-671.4" font-family="Arial" font-size="14.00">id </text>
<text text-anchor="start" x="64.99" y="-671.4" font-family="Arial" font-size="14.00" fill="#666666">[uuid]</text>
<polygon fill="none" stroke="black" points="43.2,-628.4 43.2,-659.2 1239.3,-659.2 1239.3,-628.4 43.2,-628.4"/>
<text text-anchor="start" x="50.2" y="-640.6" font-family="Arial" font-size="14.00">provider_id </text>
<text text-anchor="start" x="123.35" y="-640.6" font-family="Arial" font-size="14.00" fill="#666666">[uuid]</text>
<polygon fill="none" stroke="black" points="43.2,-597.6 43.2,-628.4 1239.3,-628.4 1239.3,-597.6 43.2,-597.6"/>
<text text-anchor="start" x="50.2" y="-609.8" font-family="Arial" font-size="14.00">kind </text>
<text text-anchor="start" x="79.77" y="-609.8" font-family="Arial" font-size="14.00" fill="#666666">[text]</text>
<text text-anchor="start" x="110.12" y="-609.8" font-family="Arial" font-size="14.00"> service or experience. Fixed at creation.</text>
<polygon fill="none" stroke="black" points="43.2,-566.8 43.2,-597.6 1239.3,-597.6 1239.3,-566.8 43.2,-566.8"/>
<text text-anchor="start" x="50.2" y="-579" font-family="Arial" font-size="14.00">category_id </text>
<text text-anchor="start" x="126.47" y="-579" font-family="Arial" font-size="14.00" fill="#666666">[uuid]</text>
<text text-anchor="start" x="160.72" y="-579" font-family="Arial" font-size="14.00"> A category of the same kind, enforced by the (category_id, kind) reference.</text>
<polygon fill="none" stroke="black" points="43.2,-536 43.2,-566.8 1239.3,-566.8 1239.3,-536 43.2,-536"/>
<text text-anchor="start" x="50.2" y="-548.2" font-family="Arial" font-size="14.00">city_id </text>
<text text-anchor="start" x="93.77" y="-548.2" font-family="Arial" font-size="14.00" fill="#666666">[uuid]</text>
<polygon fill="none" stroke="black" points="43.2,-505.2 43.2,-536 1239.3,-536 1239.3,-505.2 43.2,-505.2"/>
<text text-anchor="start" x="50.2" y="-517.4" font-family="Arial" font-size="14.00">title </text>
<text text-anchor="start" x="75.88" y="-517.4" font-family="Arial" font-size="14.00" fill="#666666">[text]</text>
<polygon fill="none" stroke="black" points="43.2,-474.4 43.2,-505.2 1239.3,-505.2 1239.3,-474.4 43.2,-474.4"/>
<text text-anchor="start" x="50.2" y="-486.6" font-family="Arial" font-size="14.00">slug </text>
<text text-anchor="start" x="79.77" y="-486.6" font-family="Arial" font-size="14.00" fill="#666666">[text]</text>
<text text-anchor="start" x="110.12" y="-486.6" font-family="Arial" font-size="14.00"> Generated from the title with a short random suffix when the listing is created. Used by public listing pages; not changed afterwards.</text>
<polygon fill="none" stroke="black" points="43.2,-443.6 43.2,-474.4 1239.3,-474.4 1239.3,-443.6 43.2,-443.6"/>
<text text-anchor="start" x="50.2" y="-455.8" font-family="Arial" font-size="14.00">description </text>
<text text-anchor="start" x="121.79" y="-455.8" font-family="Arial" font-size="14.00" fill="#666666">[text]</text>
<polygon fill="none" stroke="black" points="43.2,-412.8 43.2,-443.6 1239.3,-443.6 1239.3,-412.8 43.2,-412.8"/>
<text text-anchor="start" x="50.2" y="-425" font-family="Arial" font-size="14.00">price_cents </text>
<text text-anchor="start" x="125.68" y="-425" font-family="Arial" font-size="14.00" fill="#666666">[integer]</text>
<text text-anchor="start" x="176.27" y="-425" font-family="Arial" font-size="14.00"> Whole price in cents for a Service; per person for an Experience.</text>
<polygon fill="none" stroke="black" points="43.2,-382 43.2,-412.8 1239.3,-412.8 1239.3,-382 43.2,-382"/>
<text text-anchor="start" x="50.2" y="-394.2" font-family="Arial" font-size="14.00">currency </text>
<text text-anchor="start" x="107.77" y="-394.2" font-family="Arial" font-size="14.00" fill="#666666">[text]</text>
<polygon fill="none" stroke="black" points="43.2,-351.2 43.2,-382 1239.3,-382 1239.3,-351.2 43.2,-351.2"/>
<text text-anchor="start" x="50.2" y="-363.4" font-family="Arial" font-size="14.00">duration_minutes </text>
<text text-anchor="start" x="161.49" y="-363.4" font-family="Arial" font-size="14.00" fill="#666666">[integer]</text>
<text text-anchor="start" x="212.08" y="-363.4" font-family="Arial" font-size="14.00"> Required for Experiences; optional for Services.</text>
<polygon fill="none" stroke="black" points="43.2,-320.4 43.2,-351.2 1239.3,-351.2 1239.3,-320.4 43.2,-320.4"/>
<text text-anchor="start" x="50.2" y="-332.6" font-family="Arial" font-size="14.00">location_mode </text>
<text text-anchor="start" x="145.15" y="-332.6" font-family="Arial" font-size="14.00" fill="#666666">[text]</text>
<text text-anchor="start" x="175.5" y="-332.6" font-family="Arial" font-size="14.00"> Services only: provider_location (customer comes to the provider) or customer_location (provider travels, within listing_service_areas). Null for Experiences.</text>
<polygon fill="none" stroke="black" points="43.2,-289.6 43.2,-320.4 1239.3,-320.4 1239.3,-289.6 43.2,-289.6"/>
<text text-anchor="start" x="50.2" y="-301.8" font-family="Arial" font-size="14.00">area_id </text>
<text text-anchor="start" x="100.79" y="-301.8" font-family="Arial" font-size="14.00" fill="#666666">[uuid]</text>
<text text-anchor="start" x="135.04" y="-301.8" font-family="Arial" font-size="14.00"> The public location label, e.g. Old Fourth Ward. Required for provider&#45;location Services and Experiences. Must be in the listing&#39;s city.</text>
<polygon fill="none" stroke="black" points="43.2,-258.8 43.2,-289.6 1239.3,-289.6 1239.3,-258.8 43.2,-258.8"/>
<text text-anchor="start" x="50.2" y="-271" font-family="Arial" font-size="14.00">status </text>
<text text-anchor="start" x="91.44" y="-271" font-family="Arial" font-size="14.00" fill="#666666">[text]</text>
<text text-anchor="start" x="121.79" y="-271" font-family="Arial" font-size="14.00"> draft, submitted, live, rejected or unpublished. Changed only by server routes.</text>
<polygon fill="none" stroke="black" points="43.2,-228 43.2,-258.8 1239.3,-258.8 1239.3,-228 43.2,-228"/>
<text text-anchor="start" x="50.2" y="-240.2" font-family="Arial" font-size="14.00">rejection_reason </text>
<text text-anchor="start" x="157.6" y="-240.2" font-family="Arial" font-size="14.00" fill="#666666">[text]</text>
<text text-anchor="start" x="187.94" y="-240.2" font-family="Arial" font-size="14.00"> Why an Experience was sent back. Set on rejection; cleared on resubmission.</text>
<polygon fill="none" stroke="black" points="43.2,-197.2 43.2,-228 1239.3,-228 1239.3,-197.2 43.2,-197.2"/>
<text text-anchor="start" x="50.2" y="-209.4" font-family="Arial" font-size="14.00">submitted_at </text>
<text text-anchor="start" x="134.25" y="-209.4" font-family="Arial" font-size="14.00" fill="#666666">[timestamp with time zone]</text>
<polygon fill="none" stroke="black" points="43.2,-166.4 43.2,-197.2 1239.3,-197.2 1239.3,-166.4 43.2,-166.4"/>
<text text-anchor="start" x="50.2" y="-178.6" font-family="Arial" font-size="14.00">reviewed_at </text>
<text text-anchor="start" x="129.58" y="-178.6" font-family="Arial" font-size="14.00" fill="#666666">[timestamp with time zone]</text>
<polygon fill="none" stroke="black" points="43.2,-135.6 43.2,-166.4 1239.3,-166.4 1239.3,-135.6 43.2,-135.6"/>
<text text-anchor="start" x="50.2" y="-147.8" font-family="Arial" font-size="14.00">published_at </text>
<text text-anchor="start" x="133.49" y="-147.8" font-family="Arial" font-size="14.00" fill="#666666">[timestamp with time zone]</text>
<text text-anchor="start" x="299.21" y="-147.8" font-family="Arial" font-size="14.00"> Set the first time the listing goes live and never cleared.</text>
<polygon fill="none" stroke="black" points="43.2,-104.8 43.2,-135.6 1239.3,-135.6 1239.3,-104.8 43.2,-104.8"/>
<text text-anchor="start" x="50.2" y="-117" font-family="Arial" font-size="14.00">created_at </text>
<text text-anchor="start" x="120.25" y="-117" font-family="Arial" font-size="14.00" fill="#666666">[timestamp with time zone]</text>
<polygon fill="none" stroke="black" points="43.2,-74 43.2,-104.8 1239.3,-104.8 1239.3,-74 43.2,-74"/>
<text text-anchor="start" x="50.2" y="-86.2" font-family="Arial" font-size="14.00">updated_at </text>
<text text-anchor="start" x="124.16" y="-86.2" font-family="Arial" font-size="14.00" fill="#666666">[timestamp with time zone]</text>
<polygon fill="none" stroke="black" points="43.2,-43.2 43.2,-74 1239.3,-74 1239.3,-43.2 43.2,-43.2"/>
<text text-anchor="start" x="50.2" y="-55.4" font-family="Arial" font-size="14.00">unpublished_reason </text>
<text text-anchor="start" x="180.19" y="-55.4" font-family="Arial" font-size="14.00" fill="#666666">[text]</text>
<text text-anchor="start" x="210.54" y="-55.4" font-family="Arial" font-size="14.00"> Why the owner took the listing down, 10 to 1,000 characters; shown to the provider. Set when unpublished; cleared on restore. Server&#45;only.</text>
</g>
<!-- public.listing_ratings&#45;&gt;public.listings -->
<g id="edge1" class="edge">
<title>public.listing_ratings:listing_id&#45;&gt;public.listings:id</title>
<path fill="none" stroke="black" d="M1157.59,-1152.62C1261.59,-1124.51 1345.43,-674.6 1240.3,-674.6"/>
<polygon fill="black" stroke="black" points="1157.71,-1152.61 1147.19,-1149.5 1152.42,-1153.33 1148.13,-1153.91 1148.13,-1153.91 1148.13,-1153.91 1152.42,-1153.33 1148.41,-1158.41 1157.71,-1152.61"/>
<text text-anchor="start" x="1154.47" y="-1164" font-family="Arial" font-size="10.00">FOREIGN KEY (listing_id) REFERENCES listings(id) ON DELETE CASCADE</text>
</g>
</g>
</svg>
